<svg width="516" height="177" viewBox="0 0 516 177" fill="none" xmlns="http://www.w3.org/2000/svg">
<path d="M112.592 139.384C105.872 139.384 100.4 137.464 96.176 133.624C91.952 129.784 89.84 123.864 89.84 115.864C89.84 107.864 92.016 101.656 96.368 97.24C100.784 92.824 106.352 90.616 113.072 90.616C119.856 90.616 125.36 92.536 129.584 96.376C133.808 100.216 135.92 106.136 135.92 114.136C135.92 122.136 133.712 128.344 129.296 132.76C124.944 137.176 119.376 139.384 112.592 139.384ZM113.264 91.384C108.4 91.384 104.368 93.56 101.168 97.912C97.968 102.2 96.368 108.216 96.368 115.96C96.368 123.64 97.84 129.336 100.784 133.048C103.728 136.76 107.632 138.616 112.496 138.616C117.36 138.616 121.392 136.472 124.592 132.184C127.792 127.832 129.392 121.816 129.392 114.136C129.392 106.392 127.92 100.664 124.976 96.952C122.032 93.24 118.128 91.384 113.264 91.384ZM183.207 139C178.855 139 175.879 138.168 174.279 136.504C172.807 135.096 172.071 133.88 172.071 132.856V130.84C168.935 136.536 163.911 139.384 156.999 139.384C148.935 139.384 144.359 135.736 143.271 128.44C143.143 127.672 143.079 126.904 143.079 126.136C143.079 125.304 143.207 124.408 143.463 123.448C143.719 122.488 144.455 121.432 145.671 120.28C148.103 117.976 153.447 116.568 161.703 116.056C163.751 115.864 165.639 115.768 167.367 115.768C169.095 115.768 170.663 115.832 172.071 115.96V100.024C171.943 99.96 171.943 99.672 172.071 99.16C172.199 98.584 172.071 97.88 171.687 97.048C171.367 96.152 170.919 95.288 170.343 94.456C169.767 93.624 168.743 92.92 167.271 92.344C165.799 91.704 163.879 91.384 161.511 91.384C159.143 91.384 156.359 91.832 153.159 92.728C150.023 93.56 147.719 94.392 146.247 95.224L145.863 94.552C151.559 91.928 157.351 90.616 163.239 90.616C169.831 90.616 174.183 91.8 176.295 94.168C177.959 96.024 178.791 97.976 178.791 100.024V132.184C178.791 134.04 179.143 135.48 179.847 136.504C180.615 137.464 181.383 137.976 182.151 138.04L183.207 138.232H186.183V139H183.207ZM158.535 138.616C161.927 138.616 164.967 137.464 167.655 135.16C170.407 132.792 171.879 130.52 172.071 128.344V116.728C170.343 116.6 168.583 116.536 166.791 116.536C165.063 116.536 163.335 116.632 161.607 116.824C156.743 117.4 153.575 118.488 152.103 120.088C150.631 121.688 149.895 123.896 149.895 126.712C149.895 127.224 149.927 127.8 149.991 128.44C150.567 135.224 153.415 138.616 158.535 138.616ZM192.86 91.768V91H194.876V81.4H201.596V91H216.284V91.768H201.596V126.712C201.596 130.872 202.044 133.88 202.94 135.736C203.9 137.592 205.852 138.52 208.796 138.52C211.804 138.52 214.844 137.912 217.916 136.696L218.204 137.464C215.004 138.68 211.324 139.288 207.164 139.288C203.068 139.288 199.996 138.456 197.948 136.792C195.9 135.064 194.876 131.672 194.876 126.616V91.768H192.86ZM254.09 116.728C254.09 108.408 256.106 101.976 260.138 97.432C264.17 92.888 270.218 90.616 278.282 90.616C282.058 90.616 285.866 91.576 289.706 93.496V67.096H296.426V132.184C296.426 134.04 296.778 135.48 297.482 136.504C298.25 137.464 299.018 137.976 299.786 138.04L300.842 138.232H303.818V139H297.962C295.338 139 293.322 138.424 291.914 137.272C290.57 136.12 289.866 134.968 289.802 133.816L289.706 132.184V130.648C288.49 132.888 286.474 134.872 283.658 136.6C280.842 138.328 277.514 139.192 273.674 139.192C260.618 138.872 254.09 131.384 254.09 116.728ZM273.77 138.424C278.058 138.424 281.738 137.272 284.81 134.968C287.882 132.664 289.514 130.392 289.706 128.152V94.36C285.162 92.376 281.258 91.384 277.994 91.384C272.298 91.384 268.01 93.624 265.13 98.104C262.25 102.52 260.81 108.728 260.81 116.728C260.81 131.192 265.13 138.424 273.77 138.424ZM313.212 115.576C313.212 123.512 314.588 129.336 317.34 133.048C320.156 136.76 323.836 138.616 328.38 138.616C334.78 138.616 340.476 137.656 345.468 135.736L345.756 136.408C340.636 138.392 334.844 139.384 328.38 139.384C321.98 139.384 316.764 137.464 312.732 133.624C308.7 129.784 306.684 123.864 306.684 115.864C306.684 107.864 308.796 101.656 313.02 97.24C317.244 92.824 322.62 90.616 329.148 90.616C334.396 90.616 338.812 92.184 342.396 95.32C345.98 98.456 347.772 103.096 347.772 109.24C347.772 109.56 347.772 109.88 347.772 110.2H313.5C313.308 111.928 313.212 113.72 313.212 115.576ZM341.244 109.432C341.18 103.288 339.996 98.744 337.692 95.8C335.388 92.856 332.412 91.384 328.764 91.384C325.116 91.384 321.852 92.984 318.972 96.184C316.156 99.384 314.364 103.8 313.596 109.432H341.244ZM382.622 94.36C381.598 93.528 379.934 92.824 377.63 92.248C375.39 91.672 373.694 91.384 372.542 91.384C371.39 91.384 370.718 91.384 370.526 91.384C367.07 91.448 364.574 92.344 363.038 94.072C361.502 95.736 360.734 97.624 360.734 99.736C360.734 101.848 361.406 103.64 362.75 105.112C364.094 106.52 365.758 107.64 367.742 108.472C369.79 109.24 371.966 110.136 374.27 111.16C376.638 112.184 378.814 113.24 380.798 114.328C382.846 115.352 384.542 116.888 385.886 118.936C387.23 120.92 387.902 123.416 387.902 126.424C387.902 129.432 386.846 131.992 384.734 134.104C382.622 136.216 380.254 137.624 377.63 138.328C375.07 139.032 372.286 139.384 369.278 139.384C362.75 139.384 357.854 137.944 354.59 135.064L355.166 134.488C356.446 135.704 358.334 136.696 360.83 137.464C363.39 138.232 365.854 138.616 368.222 138.616C371.998 138.616 375.102 137.592 377.534 135.544C380.03 133.432 381.278 130.84 381.278 127.768C381.278 124.632 380.35 122.136 378.494 120.28C376.638 118.36 374.366 116.888 371.678 115.864C369.054 114.776 366.398 113.72 363.71 112.696C361.022 111.608 358.75 110.136 356.894 108.28C355.038 106.36 354.11 104.152 354.11 101.656C354.11 99.16 354.686 97.144 355.838 95.608C356.99 94.008 358.526 92.888 360.446 92.248C363.71 91.16 366.974 90.616 370.238 90.616C375.742 90.616 380.03 91.64 383.102 93.688L382.622 94.36ZM403.007 139C400.383 139 398.367 138.424 396.959 137.272C395.615 136.12 394.911 134.968 394.847 133.816L394.751 132.184V91H401.471V132.184C401.471 134.04 401.823 135.48 402.527 136.504C403.295 137.464 404.031 137.976 404.735 138.04L405.887 138.232H408.863V139H403.007ZM395.327 80.248C394.559 79.48 394.175 78.52 394.175 77.368C394.175 76.216 394.559 75.256 395.327 74.488C396.095 73.656 397.055 73.24 398.207 73.24C399.359 73.24 400.319 73.656 401.087 74.488C401.919 75.256 402.335 76.216 402.335 77.368C402.335 78.52 401.919 79.48 401.087 80.248C400.319 81.016 399.359 81.4 398.207 81.4C397.055 81.4 396.095 81.016 395.327 80.248ZM414.204 116.728C414.204 108.408 416.22 101.976 420.252 97.432C424.284 92.888 430.332 90.616 438.396 90.616C444.348 90.616 450.396 91.672 456.54 93.784V140.152C456.476 155.384 449.82 163 436.572 163C429.276 163 423.036 160.632 417.852 155.896L418.524 155.32C424.028 159.928 430.044 162.232 436.572 162.232C445.404 162.232 449.82 154.872 449.82 140.152V130.648C448.604 132.888 446.588 134.872 443.772 136.6C440.956 138.328 437.628 139.192 433.788 139.192C420.732 138.872 414.204 131.384 414.204 116.728ZM433.884 138.424C438.172 138.424 441.852 137.272 444.924 134.968C447.996 132.664 449.628 130.392 449.82 128.152V94.264C445.212 92.344 441.308 91.384 438.108 91.384C432.412 91.384 428.124 93.624 425.244 98.104C422.364 102.52 420.924 108.728 420.924 116.728C420.924 131.192 425.244 138.424 433.884 138.424ZM508.336 139C505.712 139 503.696 138.424 502.288 137.272C500.944 136.12 500.24 134.968 500.176 133.816L500.08 132.184V102.04C500.08 96.984 498.768 93.752 496.144 92.344C494.8 91.704 493.136 91.384 491.152 91.384C487.056 91.384 483.376 93.016 480.112 96.28C476.848 99.48 475.216 102.36 475.216 104.92V139H468.496V91H475.216V101.944C476.304 99.192 478.32 96.632 481.264 94.264C484.208 91.832 487.44 90.616 490.96 90.616C494.48 90.616 497.328 90.968 499.504 91.672C501.744 92.312 503.376 93.24 504.4 94.456C506 96.44 506.8 99 506.8 102.136V132.184C506.8 134.04 507.152 135.48 507.856 136.504C508.624 137.464 509.392 137.976 510.16 138.04L511.216 138.232H514.192V139H508.336Z" fill="black"/>
<path d="M10.5 35.2C22.1 34.4 32.35 34 41.25 34C65.95 34 78.3 42.25 78.3 58.75C78.3 64.95 76.5 70.3 72.9 74.8C69.3 79.2 63.55 82.2 55.65 83.8C63.25 84.7 69.25 87 73.65 90.7C78.05 94.4 80.25 100.85 80.25 110.05C80.25 129.35 67.9 139 43.2 139H10.5V35.2ZM22.95 137.5H43.2C52.1 137.5 58.4 135.2 62.1 130.6C65.9 125.9 67.8 118.75 67.8 109.15C67.8 99.55 65.9 93.15 62.1 89.95C58.3 86.75 52.65 85.05 45.15 84.85H22.95V137.5ZM41.25 35.5C35.45 35.5 29.35 35.85 22.95 36.55V83.35H45.15C59.25 82.75 66.3 74.65 66.3 59.05C66.3 51.45 64.2 45.65 60 41.65C55.8 37.55 49.55 35.5 41.25 35.5Z" fill="black"/>
<path d="M10.5 35.2L10.4312 34.2024L9.5 34.2666V35.2H10.5ZM72.9 74.8L73.674 75.4333L73.6809 75.4247L72.9 74.8ZM55.65 83.8L55.4515 82.8199L55.5324 84.7931L55.65 83.8ZM10.5 139H9.5V140H10.5V139ZM22.95 137.5H21.95V138.5H22.95V137.5ZM62.1 130.6L61.3224 129.971L61.3208 129.973L62.1 130.6ZM62.1 89.95L62.7441 89.1851L62.7441 89.1851L62.1 89.95ZM45.15 84.85L45.1767 83.8504L45.1633 83.85H45.15V84.85ZM22.95 84.85V83.85H21.95V84.85H22.95ZM22.95 36.55L22.8413 35.5559L21.95 35.6534V36.55H22.95ZM22.95 83.35H21.95V84.35H22.95V83.35ZM45.15 83.35V84.35H45.1713L45.1925 84.3491L45.15 83.35ZM60 41.65L59.3014 42.3656L59.3103 42.3741L60 41.65ZM10.5688 36.1976C22.1524 35.3988 32.3787 35 41.25 35V33C32.3213 33 22.0476 33.4012 10.4312 34.2024L10.5688 36.1976ZM41.25 35C53.5202 35 62.5478 37.0549 68.482 41.019C74.3449 44.9355 77.3 50.7904 77.3 58.75H79.3C79.3 50.2096 76.0801 43.6895 69.593 39.356C63.1772 35.0701 53.6798 33 41.25 33V35ZM77.3 58.75C77.3 64.7414 75.5662 69.8665 72.1191 74.1753L73.6809 75.4247C77.4338 70.7335 79.3 65.1586 79.3 58.75H77.3ZM72.126 74.1668C68.7225 78.3266 63.2181 81.2469 55.4515 82.8199L55.8485 84.7801C63.8819 83.1531 69.8775 80.0734 73.674 75.4332L72.126 74.1668ZM55.5324 84.7931C63.0015 85.6776 68.7978 87.9263 73.0064 91.4654L74.2936 89.9346C69.7022 86.0737 63.4985 83.7224 55.7676 82.8069L55.5324 84.7931ZM73.0064 91.4654C77.074 94.8858 79.25 100.97 79.25 110.05H81.25C81.25 100.73 79.026 93.9142 74.2936 89.9346L73.0064 91.4654ZM79.25 110.05C79.25 119.471 76.2483 126.383 70.3718 130.975C64.4484 135.603 55.4472 138 43.2 138V140C55.6528 140 65.1766 137.572 71.6032 132.55C78.0767 127.492 81.25 119.929 81.25 110.05H79.25ZM43.2 138H10.5V140H43.2V138ZM11.5 139V35.2H9.5V139H11.5ZM22.95 138.5H43.2V136.5H22.95V138.5ZM43.2 138.5C52.2458 138.5 58.909 136.163 62.8792 131.227L61.3208 129.973C57.891 134.237 51.9542 136.5 43.2 136.5V138.5ZM62.8776 131.229C66.8847 126.273 68.8 118.853 68.8 109.15H66.8C66.8 118.647 64.9153 125.527 61.3224 129.971L62.8776 131.229ZM68.8 109.15C68.8 99.5042 66.9084 92.6918 62.7441 89.1851L61.4559 90.7149C64.8917 93.6082 66.8 99.5957 66.8 109.15H68.8ZM62.7441 89.1851C58.702 85.7811 52.7928 84.0534 45.1767 83.8504L45.1233 85.8496C52.5072 86.0465 57.898 87.7188 61.4559 90.7149L62.7441 89.1851ZM45.15 83.85H22.95V85.85H45.15V83.85ZM21.95 84.85V137.5H23.95V84.85H21.95ZM41.25 34.5C35.41 34.5 29.2735 34.8524 22.8413 35.5559L23.0587 37.5441C29.4265 36.8476 35.49 36.5 41.25 36.5V34.5ZM21.95 36.55V83.35H23.95V36.55H21.95ZM22.95 84.35H45.15V82.35H22.95V84.35ZM45.1925 84.3491C52.4265 84.0413 58.0099 81.798 61.7668 77.4815C65.5087 73.1823 67.3 66.9842 67.3 59.05H65.3C65.3 66.7158 63.5663 72.3677 60.2582 76.1685C56.9652 79.952 51.9735 82.0587 45.1075 82.3509L45.1925 84.3491ZM67.3 59.05C67.3 51.2653 65.1442 45.1682 60.6897 40.9259L59.3103 42.3741C63.2558 46.1318 65.3 51.6347 65.3 59.05H67.3ZM60.6985 40.9344C56.2461 36.588 49.7021 34.5 41.25 34.5V36.5C49.3979 36.5 55.3539 38.512 59.3015 42.3656L60.6985 40.9344Z" fill="white"/>
</svg>
