<?xml version="1.0" standalone="no"?> <!DOCTYPE svg PUBLIC "-//W3C//DTD SVG 1.0//EN" "http://www.w3.org/TR/2001/REC-SVG-20010904/DTD/svg10.dtd" > <svg xmlns="http://www.w3.org/2000/svg" width="100%" height="100%">
<defs >
<font horiz-adv-x="628" ><font-face
    font-family="Magic Retro"
    units-per-em="1000"
    panose-1="0 0 0 0 0 0 0 0 0 0"
    ascent="1200"
    descent="-300"
    alphabetic="0" />
<missing-glyph horiz-adv-x="527" d="M50 700H477V0H50V700ZM78 680L263 371L449 680H78ZM251 350L71 650V49L251 350ZM264 329L79 21H449L264 329ZM276 350L457 47V652L276 350Z" />
<glyph unicode=" " glyph-name="space" horiz-adv-x="242" />
<glyph unicode="!" glyph-name="exclam" horiz-adv-x="196" d="M74 275T97 275T138 258T155 218T138 177T98 160T57 177T40 217T57 258ZM129 305H67Q60 373 42 525T17 744H178L129 305Z" />
<glyph unicode="&quot;" glyph-name="quotedbl" horiz-adv-x="172" d="M93 730H160L143 602H110L93 730ZM28 602L11 730H78L61 602H28Z" />
<glyph unicode="#" glyph-name="numbersign" horiz-adv-x="665" d="M577 491H429L409 436L557 437L537 383L389 382L314 183H257L331 382H273L199 183H141L215 382L67 381L87 436H235L255 490H107L127 544H276L350 744H408L333 544L391 545L465 744H523L449 545H597L577
491ZM351 436L371 490H313L293 436H351Z" />
<glyph unicode="$" glyph-name="dollar" horiz-adv-x="485" d="M387 464Q458 400 465 329T411 211Q360 174 270 168V119H216V168Q53 180 28 279Q13 336 44 388Q58 412 70 412Q70 375 76 344T93 289T118 249T149 222T182 206T216 201V375Q199 387 171 407T122 443T89
471Q24 534 19 601T74 715Q125 752 215 758V808H269V758Q432 746 457 647Q472 590 441 538Q426 515 415 514Q415 569 402 611T366 677T320 713T269 726V551Q287 538 330 507T387 464ZM183 655Q186 631 215 599V712Q180 692 183 655ZM270 214Q310 238 300 280Q295
301 270 328V214Z" />
<glyph unicode="%" glyph-name="percent" horiz-adv-x="737" d="M444 744H502Q405 483 293 183H235Q289 327 444 744ZM352 607Q352 547 310 513T210 478Q151 478 109 513T67 614Q67 674 110 709T211 744T310 708T352 607ZM209 488Q233 488 248 519T264 608Q265
667 250 701T210 734Q187 734 172 702T156 611Q155 552 170 520T209 488ZM529 439Q556 439 581 430T626 405T658 362T670 301Q670 261 649 231T596 187T527 173Q469 173 427 208T385 309Q385 369 428 404T529 439ZM527 183Q550 183 565 214T581 302Q582 362 567
395T527 429Q504 428 489 396T473 306Q473 247 488 215T527 183Z" />
<glyph unicode="&amp;" glyph-name="ampersand" horiz-adv-x="657" d="M72 138Q30 168 7 208T-20 288T-10 367T33 438T109 489T214 512Q179 523 154 545T117 594T104 651T116 708T153 756T216 789T306 799Q376 795 420 761T458 661Q453 636 432 619T386 599T337
610T305 657Q322 658 335 669T354 696T357 728T339 754T296 765Q256 765 236 738T219 669Q223 617 264 572T376 513Q289 488 246 412T233 255Q258 186 312 156T426 136Q465 143 494 162T540 207T563 263T566 322T549 375T513 416T459 434Q402 442 360 410Q350 402
343 393T332 375T327 357T329 341T339 327T355 319T379 316Q405 318 422 332T441 376Q469 372 487 354T507 314T502 271T471 236T416 224Q354 228 319 264T286 350T330 441Q359 470 408 489T501 518T591 545T661 591Q678 613 672 634T644 670T603 681T576 662T578
630T609 602Q592 583 566 582T519 597T497 642Q496 665 509 684T545 712Q606 734 659 690T717 578Q723 510 672 478T523 451Q574 435 602 400T630 323T615 237T562 157T479 101Q379 63 261 75T72 138Z" />
<glyph unicode="&apos;" glyph-name="quotesingle" horiz-adv-x="90" d="M11 730H78L61 602H28L11 730Z" />
<glyph unicode="(" glyph-name="parenleft" horiz-adv-x="158" d="M144 733Q98 625 87 522T90 329T144 131H89Q-49 449 89 733H144Z" />
<glyph unicode=")" glyph-name="parenright" horiz-adv-x="158" d="M68 733Q206 449 68 131H13Q52 240 67 329T72 521T13 733H68Z" />
<glyph unicode="*" glyph-name="asterisk" horiz-adv-x="178" d="M167 648L113 636L155 601Q143 581 123 572L89 622L56 571Q35 581 23 600L65 637L11 648Q12 671 26 689L75 663L67 718Q78 721 89 721T111 717L103 663L152 689Q165 671 167 648Z" />
<glyph unicode="+" glyph-name="plus" horiz-adv-x="387" d="M221 491H385V436H221V273H166V436H3V491H166V655H221V491Z" />
<glyph unicode="," glyph-name="comma" horiz-adv-x="156" d="M61 275T85 275T126 258T143 218Q143 187 126 158T81 113L77 120Q97 135 106 164Q96 160 85 160Q61 160 45 177T28 217T44 258Z" />
<glyph unicode="-" glyph-name="hyphen" horiz-adv-x="487" d="M440 436H58V491H440V436Z" />
<glyph unicode="." glyph-name="period" horiz-adv-x="153" d="M108 160T84 160T44 177T27 217T43 258T84 275T125 258T142 218T125 177Z" />
<glyph unicode="/" glyph-name="slash" horiz-adv-x="401" d="M276 744H333Q236 483 125 183H67Q121 327 276 744Z" />
<glyph unicode="0" glyph-name="zero" horiz-adv-x="657" d="M16 469Q16 536 43 591T114 681T215 734T330 753T444 735T543 680T613 586T639 453Q639 400 622 354T575 275T505 219T420 185T328 173Q268 173 213 191T114 244T43 337T16 469ZM327 732Q277 731 244
660T210 463Q209 377 224 315T266 224T327 195Q378 195 411 262T446 456Q447 586 414 659T327 732Z" />
<glyph unicode="1" glyph-name="one" horiz-adv-x="343" d="M257 506Q255 411 261 340Q265 283 285 245T347 183H-4Q73 216 82 340Q88 429 82 518Q72 654 -4 675Q74 675 147 697T257 753V506Z" />
<glyph unicode="2" glyph-name="two" horiz-adv-x="523" d="M84 260Q127 283 180 290T279 296T367 292T444 302T498 342Q502 325 502 303T496 258T476 215T442 182T391 168Q353 167 299 175T204 192T110 197T13 173L14 191Q14 236 30 277T73 350T132 413T198 472T260
529T307 589T330 655Q334 699 298 722T214 731Q164 717 127 658T99 514Q52 540 39 577T44 649T102 711T193 751Q267 765 333 754T439 715Q505 667 496 591Q490 542 463 506T399 450T315 409T226 373T144 327T84 260Z" />
<glyph unicode="3" glyph-name="three" horiz-adv-x="500" d="M119 568Q91 597 91 634T112 700T170 742Q202 753 234 754T293 750T344 731T384 700T412 660T423 615T416 568T387 521T334 477Q386 469 425 438T480 368T484 286T430 212Q370 169 252 169Q199 169
150 182T65 220T17 275Q9 292 8 309T11 347T36 383T89 410Q89 354 103 312T140 246T188 212T241 202Q276 203 299 222T320 271Q318 301 301 330T263 382T208 432Q333 487 345 558Q353 605 309 633Q263 661 210 641Q182 631 157 611T119 568Z" />
<glyph unicode="4" glyph-name="four" horiz-adv-x="480" d="M401 331Q412 203 486 183H136Q210 203 221 331H1V366L363 753H397V482Q396 419 399 366H450V331H401ZM225 555L48 366H223Q225 397 225 434V555Z" />
<glyph unicode="5" glyph-name="five" horiz-adv-x="549" d="M141 649L118 515Q164 526 219 527T330 518T431 486T505 427T531 339Q531 311 520 285T486 236T434 196Q388 173 328 163T207 157T95 191T20 271Q0 318 17 367Q28 397 53 416T108 441T175 432T241 384Q200
382 176 359T147 301Q140 242 188 210Q233 179 281 201Q345 234 345 341Q344 386 329 417T289 465T231 486T164 489T95 475L76 478L121 736V738Q160 759 210 759T304 748T391 726T468 722T522 759Q531 736 530 706T511 645T467 603Q436 590 388 600T299 629T213
655T141 649Z" />
<glyph unicode="6" glyph-name="six" horiz-adv-x="667" d="M377 758Q485 755 537 722T592 642Q595 606 568 579T503 555Q507 595 494 632T456 693T401 728T342 735Q312 728 288 708T248 659T223 597T209 531T204 468Q204 463 205 458Q236 497 284 518T382 541T484
531T574 493T635 427T653 339Q647 271 568 223T342 173Q143 172 59 290Q-6 381 23 502Q52 619 152 692Q249 762 377 758ZM462 349Q464 442 394 474Q337 500 278 472Q216 443 212 379Q211 362 215 344Q229 279 260 244T335 202Q338 202 341 202Q380 202 407 223T448
276T462 349Z" />
<glyph unicode="7" glyph-name="seven" horiz-adv-x="464" d="M470 707L481 693Q467 668 435 618T378 531T329 442T292 350T285 269T316 199Q287 177 254 173T193 182T143 218T114 273T115 342Q127 382 166 424T249 497T344 570T422 650Q400 637 369 633T307 631T243
637T179 640T121 631T74 599T42 536Q17 567 9 605T13 679T61 736Q93 756 132 759T205 753T278 730T348 705T413 693T470 707Z" />
<glyph unicode="8" glyph-name="eight" horiz-adv-x="645" d="M434 487Q571 462 617 388Q656 325 608 266Q545 188 376 175Q351 173 324 173Q138 172 53 249Q-7 304 17 369Q44 440 156 474Q181 482 209 487Q106 513 78 579Q52 639 104 691Q172 759 326 759Q479
759 546 688Q596 635 568 576Q538 512 434 487ZM416 539Q439 569 437 604T410 667T355 712T289 727T231 694Q215 674 212 650T218 603T244 560T283 526T329 508T375 510T416 539ZM435 252Q457 282 457 316T442 378T397 427T338 458T273 461T217 427Q212 420 211
420Q209 416 204 410Q188 384 188 355T199 302T232 255T280 221T334 205T388 213T435 252Z" />
<glyph unicode="9" glyph-name="nine" horiz-adv-x="667" d="M289 173Q181 176 130 209T74 289Q71 325 98 352T164 376Q159 336 172 299T210 239T265 203T324 196Q354 203 378 223T418 272T443 334T457 400T462 463Q462 467 461 473Q440 447 412 429T351 401T284
390T216 393T150 409T92 439T47 480T19 531T13 592Q19 660 98 708T324 758Q523 759 607 641Q672 550 643 429Q614 312 514 239Q417 170 289 173ZM204 582Q202 490 272 457Q329 431 388 459Q450 488 454 552Q455 569 451 587Q437 652 406 687T332 729Q328 729 325
729Q268 729 237 687T204 582Z" />
<glyph unicode=":" glyph-name="colon" horiz-adv-x="170" d="M74 390T97 390T138 374T155 334T138 293T98 276Q82 276 69 284T49 305T41 333Q41 357 57 373ZM121 446T98 446T58 462T41 503T57 543T97 560T138 544T155 503T138 463Z" />
<glyph unicode=";" glyph-name="semicolon" horiz-adv-x="171" d="M121 446T97 446T57 462T40 503T56 543T97 560T137 544T154 503T138 463ZM73 390T97 390T137 374T154 333Q154 303 137 274T92 230L89 237Q109 252 118 280Q108 276 97 276Q73 276 57 293T40 333T56 373Z" />
<glyph unicode="&lt;" glyph-name="less" horiz-adv-x="389" d="M373 667V592L165 464L373 335V260L67 461L373 667Z" />
<glyph unicode="=" glyph-name="equal" horiz-adv-x="403" d="M393 382H11V438H393V382ZM393 490H11V545H393V490Z" />
<glyph unicode="&gt;" glyph-name="greater" horiz-adv-x="389" d="M15 667L320 461L15 260V335L222 464L15 592V667Z" />
<glyph unicode="?" glyph-name="question" horiz-adv-x="390" d="M135 275T159 275T199 258T216 218T200 177T159 160T118 177T101 217T118 258ZM189 753Q211 753 234 749T281 734T325 708T360 669T379 615T377 544Q369 503 346 473T295 425T240 391T192 354T167
303H139Q137 349 147 386T171 444T206 495T238 551Q253 583 255 615T249 671T220 708T174 720Q141 718 121 683T103 598T133 504Q61 483 25 535Q2 574 8 617T40 693Q90 753 189 753Z" />
<glyph unicode="@" glyph-name="at" horiz-adv-x="685" d="M671 413Q671 382 665 351V349Q665 348 665 348T665 347Q664 343 663 340V339L660 326H659Q646 280 618 245T547 192Q515 177 476 180T409 207Q395 220 387 238Q347 212 286 212Q212 212 172 251T130
363Q128 417 150 465Q171 509 209 542Q245 572 289 585T377 587Q412 578 432 566L434 578H562L559 570Q537 513 522 464T497 376Q479 297 485 256Q496 231 513 228Q533 225 559 251Q585 276 603 317Q616 343 621 368V371Q624 392 624 413Q624 530 542 612T343 695T144
613T62 414T144 215T343 132Q388 132 430 146H431Q439 148 447 138T455 117T447 102Q396 85 343 85Q254 85 179 129T59 248T15 413T59 578T178 698T343 742T507 698T627 579T671 413ZM398 387Q416 460 408 508Q400 552 375 562Q373 563 369 564Q342 569 316 535Q285
497 267 422Q249 348 255 297Q261 249 284 239Q287 238 290 237Q317 231 346 269Q380 311 398 387Z" />
<glyph unicode="A" glyph-name="A" horiz-adv-x="851" d="M359 506Q375 404 478 387Q430 378 399 347T359 269Q349 317 318 348T239 387Q341 405 359 506ZM178 184L-15 183Q18 197 42 214T89 268T129 357L185 540Q202 539 219 540L163 356Q141 299 142 264T178
184ZM381 648Q356 611 316 590T232 566T149 574T78 610T39 671Q25 723 39 774T89 864T177 931T293 967T423 961Q461 952 491 935T539 901T575 855T600 806T623 748Q639 706 666 629T717 490T765 371Q839 197 872 183H563Q577 195 578 221T575 268T556 329Q555 333
555 335T553 340T551 346Q493 531 386 801Q386 802 385 804Q375 828 368 843T344 882T306 915T256 916Q201 901 190 832T229 701T381 648Z" />
<glyph unicode="B" glyph-name="B" horiz-adv-x="954" d="M324 166Q341 214 344 271Q353 443 349 637Q345 787 320 830Q374 835 441 851T546 886Q526 834 523 648Q521 482 530 274Q533 191 620 195Q689 198 720 253Q751 308 718 362Q674 434 550 443V459Q617 485
663 527T728 616T746 713T722 804T657 876T556 915Q507 923 455 913T355 873T271 801T216 699T203 569Q209 507 237 458T315 383V382Q218 354 149 372T42 440T1 560Q-1 641 32 711T125 831T262 915T429 962T610 966Q681 960 739 941T835 893T901 830T937 757T945
680T924 605T877 539T804 487T707 455Q839 441 897 369Q943 310 911 251Q872 178 742 161Q651 149 531 170Q415 190 324 166Z" />
<glyph unicode="C" glyph-name="C" horiz-adv-x="737" d="M469 171Q399 165 331 177T203 221T98 302T29 422T7 580Q10 658 47 731T143 855T275 936T424 967Q506 967 572 932T673 833T698 691Q694 657 677 624T632 564T572 522Q534 503 492 500T410 511T341 558Q319
584 308 624T307 711T354 788Q364 754 384 730T428 696T479 684T532 690Q571 702 589 728T607 787Q606 844 554 882T423 911Q355 902 304 847T228 716T205 555Q207 463 236 389T325 268T468 222Q514 222 552 243T613 297T649 371T661 454Q693 467 715 428Q743 379
721 316Q687 221 557 185Q517 175 469 171Z" />
<glyph unicode="D" glyph-name="D" horiz-adv-x="1020" d="M323 166Q339 214 342 271Q346 342 349 583Q350 636 347 685T337 773T320 830Q374 835 441 851T546 886Q535 857 529 774T523 595Q524 363 528 274Q529 238 559 215T630 193T700 225Q741 268 765 338T793
485T780 640T729 781T637 881T506 917Q446 915 389 889T289 819T221 709T203 569Q209 507 237 457T315 382Q243 360 186 366T88 398T25 467T1 560Q0 631 30 695T113 807T236 893T385 950T544 975Q645 979 729 952T867 874T958 758T1005 620T1006 476T966 342T881
233T757 167Q676 145 529 170Q413 190 323 166Z" />
<glyph unicode="E" glyph-name="E" horiz-adv-x="649" d="M63 828Q71 877 112 913T206 964T316 980T415 964Q455 949 478 918T503 851T492 784T450 732T380 713Q346 714 319 737T286 796T311 873Q319 846 342 829T390 812Q426 814 440 837T441 888T393 930Q365
942 336 939T281 924T239 885T219 824Q215 762 261 714T403 658V641Q268 608 221 500Q184 412 221 324Q254 244 328 222Q353 215 381 216Q429 218 464 251T512 328T509 421T447 501Q489 526 528 526T592 509T633 459T649 389Q649 351 633 315T586 248T499 195T373
170Q182 161 78 259Q-1 332 6 429Q13 530 108 593Q166 631 246 645Q186 642 140 669T75 739T63 828Z" />
<glyph unicode="F" glyph-name="F" horiz-adv-x="642" d="M847 743Q807 744 766 761T694 800T620 849T539 889Q428 928 351 895T236 778T206 589Q209 544 222 505T260 435T318 384Q221 352 152 372T45 448T4 580Q2 654 25 716T89 823T185 899T304 946T435 961Q506
961 577 950T694 925T787 905T870 903Q909 910 937 930T960 979Q955 1004 931 1019T875 1035T814 1028T766 996T753 936Q703 939 683 984Q662 1031 695 1073Q731 1121 817 1123Q886 1124 942 1080T1020 977Q1028 947 1029 915T1017 852T982 797T926 758T847 743ZM509
641V640Q503 261 532 183H308Q344 271 335 637Q331 775 307 818Q360 823 427 840T532 874Q514 827 510 675H647V641H509Z" />
<glyph unicode="G" glyph-name="G" horiz-adv-x="741" d="M14 490Q-1 587 23 678T102 837T241 946T425 987Q508 987 573 953T673 857T698 717Q692 664 657 618T572 547Q533 528 483 528T389 546Q349 564 324 599T293 673T303 751T354 813Q364 779 384 756T428
722T480 710T532 716Q571 727 589 753T608 812Q606 869 555 907T425 935Q379 929 342 905T281 845T239 766T215 675T207 582T213 497Q222 435 241 388T284 313T336 273T390 260T442 276Q488 303 508 364T502 473Q562 459 629 479T728 532Q707 475 707 355T727 179H503Q517
217 523 283Q491 222 431 198T306 182T180 225Q112 262 69 334T14 490Z" />
<glyph unicode="H" glyph-name="H" horiz-adv-x="960" d="M540 895Q534 841 528 702T523 438H726Q731 584 724 708T696 872H944Q930 841 924 737T918 519T926 305T944 180H696Q716 221 724 403H523Q526 180 548 143Q503 154 434 154T313 141Q330 189 338 337T342
635T326 842Q263 795 230 723T203 563Q209 501 237 452T315 378Q218 349 149 367T42 435T1 554Q-3 726 140 814T540 895Z" />
<glyph unicode="I" glyph-name="I" horiz-adv-x="564" d="M540 895Q535 851 530 746T523 520T527 296T548 166Q499 178 435 179T313 164Q330 211 333 267Q336 321 340 645Q342 767 326 842Q263 795 230 723T203 563Q209 501 237 452T315 378Q218 349 149 367T42
435T1 554Q-3 726 140 814T540 895Z" />
<glyph unicode="J" glyph-name="J" horiz-adv-x="556" d="M-4 554Q-9 726 134 814T535 895Q528 839 524 767T519 603T518 452T517 287T518 158Q518 0 356 0Q286 0 239 34T194 133Q196 168 230 186T306 186Q286 165 275 142T262 100T265 66T277 43T296 36Q311 37
321 60T332 130Q332 157 333 363T335 645Q336 768 321 842Q258 795 224 723T198 562Q203 501 231 452T309 378Q238 356 181 361T83 393T20 461T-4 554Z" />
<glyph unicode="K" glyph-name="K" horiz-adv-x="945" d="M821 337Q863 270 893 233T950 181H666Q675 190 675 204T669 238T651 277T624 323Q604 354 523 483Q522 213 548 167Q499 180 435 181T313 166Q330 212 333 269Q336 323 340 645Q342 768 326 842Q263 795
230 723T203 563Q209 502 237 453T315 379Q218 351 149 369T42 436T1 555Q-3 726 140 814T540 895Q527 780 523 536Q615 583 674 632T754 719T776 792T766 847T734 880Q760 909 800 917T874 913T920 874Q955 797 887 714T675 567L821 337Z" />
<glyph unicode="L" glyph-name="L" horiz-adv-x="832" d="M535 895Q527 831 522 661T519 359Q520 330 520 315T523 276T529 238T540 207T556 179T579 160T611 148T653 145T707 152Q739 158 762 177T782 222Q775 261 732 273T650 260T619 183Q576 186 560 229Q542
275 573 315Q605 355 673 356Q711 356 744 336T799 286T832 220Q839 192 839 163T829 104T800 53T753 17T688 3Q655 4 620 22T560 62T498 111T431 151Q355 182 307 164Q324 211 328 267Q331 321 335 645Q336 767 321 842Q258 795 224 723T198 563Q203 501 231 452T310
378Q213 349 144 367T37 435T-4 554Q-9 726 134 814T535 895Z" />
<glyph unicode="M" glyph-name="M" horiz-adv-x="1027" d="M610 459L793 898H1012Q993 857 988 695T989 375T1012 183H761Q798 256 793 598V814L529 183H495L337 742Q330 762 327 772T313 803T291 836T262 854T223 858Q187 849 169 812T156 727Q163 667 207 625T328
585Q298 539 243 521T136 513T44 561T-2 654Q-7 707 19 761T90 845Q127 870 177 882T277 895T382 895T489 895L610 459ZM343 184L159 183Q236 221 236 342V483Q253 489 269 497V342Q269 302 278 270T303 217T343 184Z" />
<glyph unicode="N" glyph-name="N" horiz-adv-x="825" d="M365 184L169 183Q251 221 251 342V483Q269 489 286 497V342Q286 283 307 243T365 184ZM869 895Q832 877 811 837T790 737Q790 276 790 265V183H755L278 772Q250 808 228 823T193 832T172 811T163 771Q156
692 207 638T349 585Q319 544 269 525T166 511T72 541Q21 572 5 626T6 735T68 824Q107 857 149 873T230 892T318 895T418 896L755 474V737Q755 859 673 896L869 895Z" />
<glyph unicode="O" glyph-name="O" horiz-adv-x="894" d="M886 580Q893 380 748 264Q629 168 456 165T158 253Q10 361 7 553Q7 566 7 580Q10 658 47 731T143 855T275 936T424 967Q506 967 572 932T673 833T698 691Q691 639 656 593T572 522Q534 503 492 500T410
511T341 558Q325 577 315 606T303 667T313 732T354 788Q364 754 384 730T428 696T479 684T532 690Q558 698 575 713T600 747T607 787Q606 844 554 882T423 911Q355 902 304 847T228 716T205 555Q206 475 227 410T282 305T359 243T446 221T534 243T610 305T665 410T688
555Q688 566 687 576Q725 628 732 687Q745 790 690 872Q669 903 641 927Q745 877 813 784T886 580Z" />
<glyph unicode="P" glyph-name="P" horiz-adv-x="928" d="M549 169Q410 189 325 166Q342 214 345 271Q355 443 350 637Q346 787 322 830Q375 835 442 851T548 886Q527 834 524 648Q524 587 524 519Q526 371 528 319Q533 212 549 169ZM612 966Q704 958 774 928T883
853T937 759T943 657Q931 609 903 571T837 509T752 468T654 447T551 443V459Q618 485 664 527T729 616T747 713T723 804T658 876T558 915Q508 923 456 913T356 873T273 801T218 699T205 569Q210 507 238 458T316 383V382Q219 354 150 372T43 440T3 560Q1 641 34
711T126 831T263 915T431 962T612 966Z" />
<glyph unicode="Q" glyph-name="Q" horiz-adv-x="897" d="M880 580Q883 503 862 437T802 322T710 240T596 187Q612 178 634 164T674 140T712 117T751 99T788 89T828 89T867 104Q889 116 901 142T902 186Q885 212 853 209T807 179T813 114Q779 102 747 124T718
184T775 247Q804 261 835 257T893 239T940 202Q970 169 983 133T989 67T962 14T902 -18T814 -19Q782 -14 745 8T674 57T607 110T538 152T471 165Q400 162 332 175T202 222T95 305T24 425T2 580Q5 658 42 731T138 855T270 936T418 967Q501 967 567 932T667 833T693
691Q686 639 651 593T566 522Q528 503 487 500T404 511T335 558Q314 584 303 624T302 711T348 788Q358 754 378 730T423 696T474 684T526 690Q565 702 584 728T602 787Q600 844 548 882T418 911Q349 902 298 847T223 716T200 555Q201 475 222 410T277 305T354 243T441
221T528 243T605 305T660 410T682 555Q682 566 682 576Q720 628 727 687Q740 790 684 872Q664 903 636 927Q739 877 807 784T880 580Z" />
<glyph unicode="R" glyph-name="R" horiz-adv-x="1035" d="M606 966Q699 958 769 928T878 853T932 759T937 657Q891 471 629 446Q668 418 698 375T745 293T788 210T844 139Q867 118 896 113T952 125Q988 151 966 197Q945 239 897 254Q850 269 807 240Q783 273
819 308Q859 345 918 340Q970 334 1008 292Q1035 259 1037 219T1020 141T967 70T889 17T799 -6Q747 -8 701 17T634 89Q618 123 612 173T604 266T593 353T560 428Q553 435 546 443V459Q613 485 659 527T724 616T742 713T718 804T653 876T552 915Q503 923 451 913T351
873T267 801T212 699T199 569Q202 539 210 511T232 459T266 415T311 383V382Q214 354 145 372T38 440T-3 560Q-5 641 28 711T121 831T258 915T425 962T606 966ZM544 169Q506 182 441 181T320 166Q336 214 340 271Q349 443 345 637Q341 787 316 830Q370 835 437
851T542 886Q522 834 519 648Q518 587 519 519Q521 370 523 319Q528 212 544 169Z" />
<glyph unicode="S" glyph-name="S" horiz-adv-x="756" d="M490 715Q503 754 491 782T453 832T392 864T322 877T260 870T219 843Q183 789 318 734Q350 721 400 705T490 676T573 645T652 603T712 549Q750 502 753 445T732 339T657 248T544 188Q491 172 431 167T313
167T201 190T104 233T33 297T0 383Q-9 463 49 516T209 565Q188 527 188 485T204 404T253 331T325 272T414 237T514 232Q578 243 608 278T626 358T561 438Q524 463 464 488T351 533T248 578T164 640T124 727Q119 763 134 800T178 867T248 922T333 960T424 975T511
963Q557 946 582 911T608 839T577 766T490 715Z" />
<glyph unicode="T" glyph-name="T" horiz-adv-x="596" d="M311 772Q348 775 394 783T484 802T553 824Q529 772 526 622T532 340T553 183H312Q351 265 341 604Q338 732 311 772ZM751 1159Q862 1160 932 1069T989 876T876 748Q809 734 757 745T644 784T537 843T432
896T326 920Q263 921 220 894T167 828T167 750T220 685T327 659Q295 615 240 597T132 588T40 634T-3 730Q-6 774 5 812T40 877T94 924T162 957T238 976T316 984Q386 985 482 969T669 941T828 937Q868 941 893 961T913 1010Q908 1035 882 1051T821 1068T754 1063T701
1031T686 973Q636 975 616 1021Q596 1068 628 1110Q665 1158 751 1159Z" />
<glyph unicode="U" glyph-name="U" horiz-adv-x="939" d="M541 893Q538 861 533 770T524 561T528 355T560 268Q588 269 617 312T668 423T703 566T716 715T697 836Q750 842 817 859T923 894Q902 841 900 650Q899 587 899 517Q901 364 903 312Q908 216 924 170Q880
181 822 181T701 167Q718 218 720 263Q727 382 727 493Q680 248 563 184Q528 166 489 167T417 186Q395 198 380 216T358 252T345 297T339 341T337 387Q337 397 337 402Q335 459 335 526T336 652T335 763T327 840Q274 800 242 733T203 598T225 466T316 371Q220 343
151 361T44 429T3 549Q-2 722 141 811T541 893Z" />
<glyph unicode="V" glyph-name="V" horiz-adv-x="813" d="M598 343Q605 317 615 300T638 275T663 279T689 322Q703 361 746 531T792 736Q793 789 783 824T744 881Q783 901 810 887T842 839Q848 800 825 698Q822 682 807 624T773 500T739 377T717 303Q682 199 654
178Q617 149 563 154Q544 156 528 160T499 172T476 188T458 210T444 233T433 261T424 288T416 317T407 346Q392 399 374 467T341 596T322 672Q291 788 276 828Q239 799 219 749T200 644T216 536T267 441T350 382Q212 320 106 384Q26 432 5 529Q-18 639 54 735Q125
829 271 869Q357 894 499 894Q483 876 481 834T492 740L598 343Z" />
<glyph unicode="W" glyph-name="W" horiz-adv-x="1197" d="M655 225Q682 319 736 506Q746 466 754 439Q698 248 674 171Q625 178 561 171T461 146Q466 205 398 453T283 828H282Q255 807 237 775T211 705T205 629T217 551T247 479T295 420T358 382Q217 320 109
384Q27 432 6 528Q-19 637 53 732Q126 828 277 869Q366 894 517 894Q501 877 499 834T510 740Q577 466 655 225ZM713 686Q664 864 633 894H900Q882 875 880 827T892 720Q954 471 1033 225Q1065 334 1098 454T1151 647T1174 736Q1193 830 1125 881Q1165 901 1193
887T1226 839Q1234 785 1194 647Q1156 515 1053 171Q1004 178 940 171T839 146Q843 192 798 372Q788 409 777 452T756 529T734 609T713 686Z" />
<glyph unicode="X" glyph-name="X" horiz-adv-x="970" d="M980 894Q946 882 923 872T867 840T806 786Q749 723 652 595Q696 535 756 456T858 321T936 218T980 155Q938 170 889 176T781 178T675 153Q686 208 532 435Q463 341 435 287Q421 259 424 223T447 169Q323
193 181 169Q226 188 303 270T494 491Q427 587 353 682T240 824Q197 774 194 700T221 552Q236 514 259 483T314 431T383 401Q319 362 257 353T148 363T65 418T14 505T3 608T38 716T128 815Q192 863 275 879T463 893Q474 842 617 643Q761 835 714 894H980Z" />
<glyph unicode="Y" glyph-name="Y" horiz-adv-x="764" d="M874 894Q846 880 828 858T783 782Q702 627 630 452Q636 217 657 171Q539 194 417 171Q447 230 447 441Q414 535 338 660T220 823Q195 784 190 732T200 629T244 533T316 457T408 422Q364 373 297 360T169
366T71 428Q29 475 11 538T7 669T67 784Q127 847 228 871T440 893Q450 862 472 812T535 680T623 523Q706 697 726 793Q739 855 704 894H874Z" />
<glyph unicode="Z" glyph-name="Z" horiz-adv-x="795" d="M316 914Q364 915 424 907T529 891T642 881T773 892Q756 862 690 759T565 563T451 364T381 200Q408 195 443 188T498 175T548 165T594 160T638 163Q677 170 705 189T728 234Q723 257 699 271T643 286T582
280T534 249T521 194Q469 197 450 240Q430 285 464 324Q502 366 585 367Q654 368 710 328T787 232Q796 204 797 174T785 116T750 65T693 28T615 15Q582 15 550 25T489 52T433 85T372 121T307 151Q200 187 73 155Q88 180 182 326T355 607T458 822Q383 855 326 856Q263
856 220 831T167 770T167 697T220 637T327 613Q295 572 240 556T132 547T40 590T-3 678Q-5 706 -1 731T14 777T39 815T74 846T115 871T162 890T212 903T264 911T316 914Z" />
<glyph unicode="[" glyph-name="bracketleft" horiz-adv-x="159" d="M145 782H86V144H145V87H31V839H145V782Z" />
<glyph unicode="\" glyph-name="backslash" horiz-adv-x="401" d="M125 744Q280 327 333 183H276Q227 312 164 484T67 744H125Z" />
<glyph unicode="]" glyph-name="bracketright" horiz-adv-x="159" d="M13 839H128V87H13V144H73V782H13V839Z" />
<glyph unicode="^" glyph-name="asciicircum" horiz-adv-x="205" d="M102 757L197 625H134L102 694L69 625H7L102 757Z" />
<glyph unicode="_" glyph-name="underscore" horiz-adv-x="494" d="M486 183H8V238H486V183Z" />
<glyph unicode="`" glyph-name="grave" horiz-adv-x="131" d="M73 715L124 602H91L5 715H73Z" />
<glyph unicode="a" glyph-name="a" horiz-adv-x="584" d="M279 423Q280 465 280 483Q278 482 270 473T259 462T249 451T238 438T228 425T218 410T210 395T202 377T197 359T192 339Q188 315 193 301T209 287Q231 289 247 324T279 423ZM279 340Q269 305 259 280T231
227T187 186T125 171Q69 171 37 210T7 304T50 399Q78 428 120 449T194 481T255 511T292 564Q300 597 290 625T245 657Q228 658 212 648T187 623T183 585T210 540Q189 514 153 506T85 513T43 567Q36 621 108 660Q187 702 283 689Q398 675 438 586Q455 548 455 499L456
315Q456 262 466 235T498 212Q527 222 521 279T481 376Q538 405 569 362Q596 322 577 266Q555 199 483 180Q460 173 433 173Q281 173 279 340Z" />
<glyph unicode="b" glyph-name="b" horiz-adv-x="488" d="M274 572Q252 571 235 540T212 460Q213 297 227 219Q275 269 303 355T324 507T274 572ZM235 825Q216 766 213 554Q252 661 319 678Q373 692 420 659T483 561T489 431T450 317Q414 255 359 218T235 183H9Q38
253 38 474T9 756Q63 763 130 783T235 825Z" />
<glyph unicode="c" glyph-name="c" horiz-adv-x="476" d="M131 618Q104 612 111 555Q120 476 178 410Q274 302 425 337L470 351Q467 326 458 304T434 262T402 227T361 199T313 180Q213 153 126 206Q83 232 55 271T17 355T9 445T30 534T78 609T151 662T245 682Q318
682 343 633T343 535T266 485Q252 540 207 582T131 618Z" />
<glyph unicode="d" glyph-name="d" horiz-adv-x="499" d="M487 183H261Q194 182 141 219T52 317Q24 366 13 431T18 561T82 659T183 678Q249 661 288 557Q283 711 261 756Q315 763 382 783T487 825Q465 756 464 505T487 183ZM228 572Q183 574 178 497Q173 408 219
306Q242 255 272 222Q289 308 290 463Q286 494 277 518T256 557T228 572Z" />
<glyph unicode="e" glyph-name="e" horiz-adv-x="481" d="M470 351Q467 326 458 304T434 262T402 227T361 199T313 180Q213 153 126 206Q76 236 47 284T11 385T17 490T59 586T138 655T245 682Q335 682 400 618T473 459H143Q168 410 213 377T325 332T470 351ZM131
618Q112 614 110 580T128 493H263Q244 548 202 586T131 618Z" />
<glyph unicode="f" glyph-name="f" horiz-adv-x="307" d="M218 467Q220 241 252 183H5Q44 250 43 461Q42 585 21 675Q9 737 16 780T51 849T115 887T197 898Q280 895 308 833Q330 785 304 742Q283 705 242 705Q242 736 230 765T199 812T159 843T119 857T89 850Q68
834 82 792T138 716Q153 704 168 696T192 684T220 677T245 675T277 674T310 675V648Q249 648 234 615T218 467Z" />
<glyph unicode="g" glyph-name="g" horiz-adv-x="539" d="M44 52Q24 70 16 94T16 142T52 181Q71 191 96 193T146 189T189 166T216 123Q183 113 182 88Q182 60 222 47Q247 39 282 40Q325 41 345 64T358 116T318 161Q296 172 255 181T181 197T114 222T66 269Q51
296 61 327T105 378Q59 408 36 452T16 540T58 620T165 674Q283 702 378 644Q414 696 465 712T558 693Q577 673 577 647T561 604T519 580T462 588Q474 611 467 627T443 643T410 634Q406 630 403 626Q438 599 459 564T482 493T471 425T416 368T313 336Q215 324 137
360Q124 349 127 334T149 309Q165 300 189 298T238 299T294 305T353 309T412 305T468 284Q529 248 536 180T488 62Q447 26 355 11T172 6T44 52ZM300 517Q273 570 236 608T172 640Q149 633 154 588T187 490Q222 424 258 394T315 373Q328 379 332 397T328 446T300
517Z" />
<glyph unicode="h" glyph-name="h" horiz-adv-x="529" d="M213 394Q218 230 235 183H9Q38 253 38 474T9 756Q63 763 130 783T235 825Q224 791 218 691T212 475Q230 549 254 597T315 668Q333 679 356 682T403 680T448 657T481 607T494 527Q494 524 494 492T494
441T494 385T497 322T501 267T509 217T520 183H302Q315 201 323 294T325 477T292 569Q270 570 253 532T221 429Q217 413 213 394Z" />
<glyph unicode="i" glyph-name="i" horiz-adv-x="244" d="M230 183H12Q34 233 39 300T36 422T12 507Q73 507 132 520T230 559Q208 503 206 382T230 183ZM13 608T13 642T44 700T121 724T198 700T230 642T198 585T121 561T45 584Z" />
<glyph unicode="j" glyph-name="j" horiz-adv-x="259" d="M246 675Q235 640 230 567T224 442T224 287T225 172Q225 0 70 0Q-34 0 -72 59Q-97 99 -76 133Q-53 170 0 154Q11 150 22 145Q-42 69 -12 45Q-2 38 12 39Q27 40 37 65T47 141Q47 146 48 217T49 329T46 434T38
541T21 606Q74 613 141 633T246 675Z" />
<glyph unicode="k" glyph-name="k" horiz-adv-x="523" d="M212 387Q217 228 234 183H9Q38 253 38 474T9 756Q62 763 129 783T234 825Q221 785 215 661T211 410Q251 436 282 463T333 515T365 562T382 603T387 637T381 663T368 680Q381 697 399 705T435 712T468
701T489 675Q521 590 360 467Q365 457 404 378T473 249T530 183H279Q304 214 248 323Q238 342 213 387H212Z" />
<glyph unicode="l" glyph-name="l" horiz-adv-x="247" d="M235 825Q213 756 212 505T235 183H9Q38 253 38 474T9 756Q44 761 87 771T171 796T235 825Z" />
<glyph unicode="m" glyph-name="m" horiz-adv-x="803" d="M210 413Q210 246 236 183H9Q26 221 33 290T39 426T29 552T9 631Q113 641 210 675V496Q247 632 307 668Q326 679 349 682T396 680T441 657T474 607T487 527Q487 521 487 505T487 479Q505 551 528 598T589
668Q607 679 630 682T677 680T722 657T755 607T768 527Q768 524 768 492T768 441T768 385T771 322T775 267T783 217T794 183H576Q589 201 597 294T599 477T566 569Q545 570 528 532T495 429Q491 413 487 395Q490 227 513 183H294Q304 196 311 257T320 387T314 511T285
569Q263 570 246 532T213 429Q212 422 210 413Z" />
<glyph unicode="n" glyph-name="n" horiz-adv-x="521" d="M210 413Q210 246 236 183H9Q26 221 33 290T39 426T29 552T9 631Q113 641 210 675V496Q247 632 307 668Q326 679 349 682T396 680T441 657T474 607T487 527Q487 524 487 492T486 441T487 385T489 322T494
267T501 217T513 183H294Q304 196 311 257T320 387T314 511T285 569Q263 570 246 532T213 429Q211 421 210 413Z" />
<glyph unicode="o" glyph-name="o" horiz-adv-x="488" d="M41 614T125 659T303 669T447 540T471 348T362 204T184 194T40 323T16 515ZM293 458Q251 541 207 589T141 626Q120 615 135 552T193 405Q236 323 280 275T346 237Q366 248 352 312T293 458Z" />
<glyph unicode="p" glyph-name="p" horiz-adv-x="500" d="M243 0H15Q41 87 41 334T15 675H243Q231 639 224 569Q264 661 321 676Q375 690 422 657T485 557T491 425T452 310Q414 243 354 206T218 178Q226 52 243 0ZM217 200Q269 246 300 335T326 496T276 565Q255
564 239 537T216 464Q209 332 217 200Z" />
<glyph unicode="q" glyph-name="q" horiz-adv-x="501" d="M485 0H257Q274 52 282 178Q206 168 146 205T48 310Q20 359 9 425T12 558T75 658T176 677Q235 662 276 569Q269 639 257 675H485Q458 581 458 334T485 0ZM224 565Q180 567 174 496T199 336T283 200Q291
332 284 464Q277 509 261 536T224 565Z" />
<glyph unicode="r" glyph-name="r" horiz-adv-x="469" d="M217 539Q213 514 211 467T210 367T218 263T236 183H9Q32 233 37 332T34 516T9 631Q114 641 210 675V623Q217 634 225 642Q266 682 324 681Q380 679 417 632T456 525Q456 481 437 450T388 405T324 392T260
411Q286 430 295 474T296 558T263 601Q230 608 217 539Z" />
<glyph unicode="s" glyph-name="s" horiz-adv-x="503" d="M84 600Q101 635 140 658T224 686T311 687T383 658T413 600Q414 578 401 561T366 538T321 533T276 549T244 588Q273 596 279 612T272 642T235 656Q208 657 196 639T188 601Q189 596 190 592T195 584T201
576T209 568T216 562T226 554T235 548T246 541T256 534Q371 459 396 440Q434 412 454 386T480 327Q486 287 468 256T413 205T334 177T244 166Q115 164 58 201T3 292Q4 324 28 345T94 367T191 338Q168 320 163 295T168 248T204 213T260 199Q297 201 312 230Q320
242 318 255T309 279T291 302T265 324T235 344T205 363T177 379T153 395Q113 424 92 461T70 532T84 600Z" />
<glyph unicode="t" glyph-name="t" horiz-adv-x="343" d="M5 675Q59 685 119 708T210 756V675H298V641Q283 641 253 641T209 641Q210 368 211 315Q211 262 220 235T252 212Q282 222 275 279T235 376Q293 405 323 362Q351 322 332 266Q310 199 237 180Q214 174
188 173Q33 173 33 345Q33 372 33 417T34 482T33 533T31 580T26 615T18 648T5 675Z" />
<glyph unicode="u" glyph-name="u" horiz-adv-x="525" d="M512 675Q490 619 488 440T512 183H294Q322 248 323 389L322 386Q303 310 279 261T217 189Q194 175 164 173T104 185T58 235Q41 272 38 342T31 491T8 622Q123 636 205 675V457Q205 286 240 287Q263 289
279 325T311 426Q316 446 320 467Q313 585 294 622Q346 627 411 643T512 675Z" />
<glyph unicode="v" glyph-name="v" horiz-adv-x="420" d="M236 375Q243 347 253 328T275 302T301 306T326 353Q357 442 360 520Q361 578 351 615T312 676Q351 698 378 683T411 631Q419 569 375 399T292 197Q271 179 242 173T181 176T127 217Q105 251 78 355T25
555T-24 675H212Q197 657 195 611T205 509L236 375Z" />
<glyph unicode="w" glyph-name="w" horiz-adv-x="694" d="M181 675Q181 674 188 617T204 515T223 414T248 326T276 298Q303 303 343 506Q315 648 288 675H525Q496 641 518 509Q554 291 589 298Q609 302 628 374T649 520Q651 578 641 615T601 676Q640 698 667 683T700
631Q708 569 664 399T582 197Q561 179 532 173T470 176T417 217Q400 243 387 295T356 436Q312 233 269 197Q253 184 232 177T188 170T143 182T104 217Q81 251 63 340T23 528T-24 675H181Z" />
<glyph unicode="x" glyph-name="x" horiz-adv-x="562" d="M89 520Q77 537 59 565T31 608T9 639T-10 664T-24 675H210Q198 654 256 561Q266 544 283 518Q308 560 319 591Q328 621 322 643T297 675H514Q479 664 458 651T401 606Q357 565 301 491Q329 447 356 409T415
332T471 274T506 268Q527 296 499 343T426 407Q451 444 482 443T535 410Q567 360 552 297T487 203Q427 169 372 181T275 246Q245 282 202 346Q195 332 189 321Q167 275 172 237T204 183H-24Q33 219 121 314Q152 349 180 381Q166 401 135 449T89 520Z" />
<glyph unicode="y" glyph-name="y" horiz-adv-x="484" d="M237 161L67 531Q46 577 33 602T6 646T-24 675H224Q217 653 223 630T250 556L339 342Q341 346 345 353Q360 379 368 394T390 439T412 491T425 541T429 592T417 636T386 675Q427 691 457 674Q476 663 483
642T486 592T471 535T444 470T414 411T384 357T362 319Q279 166 214 64Q188 21 153 6T89 0T42 35T27 94Q32 132 67 148T144 141Q117 99 142 79Q162 63 185 80Q188 82 191 86Q199 94 237 161Z" />
<glyph unicode="z" glyph-name="z" horiz-adv-x="505" d="M344 183Q344 183 28 183Q28 220 60 285T145 437T220 572Q232 598 216 621T162 640Q143 638 132 625T127 596T159 572Q147 542 121 528T68 517T23 538T4 585Q6 632 51 654T161 675Q161 675 482 675Q482
645 458 597T402 502T334 395T279 288Q266 254 285 235T340 218Q364 219 374 232T378 262T346 286Q358 316 384 330T437 341T482 320T501 273Q499 226 454 204T344 183Z" />
<glyph unicode="{" glyph-name="braceleft" horiz-adv-x="201" d="M125 163Q125 142 145 136T191 144Q193 118 174 101T128 86Q105 89 89 108T70 163Q70 172 70 195T71 236T72 281T69 328T62 372T50 412T30 442T1 462V465Q19 471 32 486T53 525T65 572T71 625T72
677T71 726T70 764Q73 800 89 819T128 840Q144 842 159 835T183 814T191 782Q166 797 146 791T125 764Q125 756 125 730T126 682T127 629T123 573T116 524T104 484T85 463Q100 456 109 431T122 362T126 290T126 212T125 163Z" />
<glyph unicode="|" glyph-name="verticalbar" horiz-adv-x="118" d="M86 87H31V839H86V87Z" />
<glyph unicode="}" glyph-name="braceright" horiz-adv-x="201" d="M130 764Q130 754 130 735T129 700T128 661T130 619T134 579T142 540T155 507T173 481T199 465V462Q181 456 168 440T147 401T136 355T130 301T129 249T129 200T130 163Q128 127 112 108T73 86Q47
84 27 101T10 144Q35 129 55 135T75 163Q75 164 74 212T74 289T78 362T90 430T115 463Q100 470 91 496T78 565T74 637T74 714T75 764Q75 784 55 790T10 782Q7 809 27 826T73 840Q95 838 111 819T130 764Z" />
<glyph unicode="~" glyph-name="asciitilde" horiz-adv-x="399" d="M347 514Q379 499 386 464T374 398T318 361Q293 357 264 371T201 407T147 435Q109 447 81 421T52 348Q20 364 13 398T25 464T82 501Q106 505 136 491T199 455T252 427Q290 415 319 441T347 514Z" />
</font>
</defs>
</svg>
